<?xml version="1.0" standalone="no"?>
<!DOCTYPE svg PUBLIC "-//W3C//DTD SVG 20010904//EN"
 "http://www.w3.org/TR/2001/REC-SVG-20010904/DTD/svg10.dtd">
<svg version="1.0" xmlns="http://www.w3.org/2000/svg"
 width="74.000000pt" height="74.000000pt" viewBox="0 0 74.000000 74.000000"
 preserveAspectRatio="xMidYMid meet">
<metadata>
Created by potrace 1.14, written by Peter Selinger 2001-2017
</metadata>
<g transform="translate(0.000000,74.000000) scale(0.100000,-0.100000)"
fill="#000000" stroke="none">
<path d="M294 725 c-112 -36 -190 -103 -237 -204 -26 -56 -30 -78 -31 -151 0
-76 3 -92 31 -150 35 -71 60 -107 68 -98 3 3 -8 27 -26 52 -17 26 -29 50 -26
53 3 3 14 -12 25 -34 30 -59 106 -121 180 -148 21 -8 30 -14 21 -14 -21 -1
-107 44 -136 72 -13 11 -26 17 -30 13 -10 -10 43 -51 106 -81 102 -49 246 -40
344 22 44 28 117 102 117 119 0 6 -7 17 -15 24 -8 7 -15 8 -15 3 0 -15 -90
-102 -124 -120 -86 -45 -203 -50 -286 -11 -232 107 -262 416 -54 564 118 84
294 75 397 -22 16 -14 31 -23 35 -19 9 9 -53 60 -108 87 -37 19 -61 23 -142
23 -54 0 -90 3 -80 7 32 13 140 8 190 -8 59 -19 135 -75 170 -124 18 -26 19
-29 3 -11 -27 30 -38 21 -16 -13 19 -28 23 -30 44 -17 12 8 10 16 -14 48 -42
55 -72 80 -140 114 -71 35 -183 46 -251 24z m-52 -46 c-42 -21 -126 -97 -149
-134 -6 -11 -12 -15 -12 -9 -2 32 150 164 189 164 8 0 -4 -10 -28 -21z m-178
-214 c-15 -50 -15 -165 1 -210 6 -19 6 -19 -6 -1 -21 33 -23 146 -5 210 10 32
19 56 21 54 2 -2 -3 -26 -11 -53z m566 -348 c-69 -64 -126 -89 -209 -93 l-66
-3 66 9 c90 11 144 37 204 96 28 28 52 48 55 46 3 -2 -20 -27 -50 -55z"/>
<path d="M337 549 c-30 -52 -87 -150 -126 -219 l-71 -125 247 -3 c135 -1 248
-1 250 2 2 2 -5 19 -16 37 l-21 34 -130 5 -131 5 64 111 64 112 -38 67 -37 67
-55 -93z"/>
<path d="M500 507 c-19 -34 -52 -92 -73 -129 l-38 -68 70 0 70 0 40 68 40 67
-31 55 c-17 30 -33 58 -37 62 -3 4 -22 -21 -41 -55z"/>
<path d="M607 385 c-20 -35 -37 -67 -37 -70 0 -3 34 -5 75 -5 41 0 75 3 75 6
0 5 -67 124 -74 131 -1 1 -19 -27 -39 -62z"/>
</g>
</svg>
